HIERARCHY
ROOT pelvis
{
  OFFSET 0 100 0
  CHANNELS 6 Xposition Yposition Zposition Zrotation Xrotation Yrotation
  JOINT pelvis_right_femur
  {
    OFFSET -10.78128 -3.44521 -0.5502486
    CHANNELS 3 Zrotation Xrotation Yrotation
    JOINT right_femur_tibia
    {
      OFFSET -0.8047443 -44.0398 -0.1307829
      CHANNELS 3 Zrotation Xrotation Yrotation
      JOINT right_tibia_foot
      {
        OFFSET 3.006224 -47.83518 -5
        CHANNELS 3 Zrotation Xrotation Yrotation
        End Site
        {
          OFFSET 0 -5 15
        }
      }
    }
  }
  JOINT pelvis_left_femur
  {
    OFFSET 10.78128 -3.44521 -0.5502486
    CHANNELS 3 Zrotation Xrotation Yrotation
    JOINT left_femur_tibia
    {
      OFFSET 0.8047443 -44.0398 -0.1307829
      CHANNELS 3 Zrotation Xrotation Yrotation
      JOINT left_tibia_foot
      {
        OFFSET -4.370144 -48.10324 -4.275266
        CHANNELS 3 Zrotation Xrotation Yrotation
        End Site
        {
          OFFSET 0 -5 15
        }
      }
    }
  }
  JOINT pelvis_spine1
  {
    OFFSET 0 6.468898 -3.129235
    CHANNELS 3 Zrotation Xrotation Yrotation
    JOINT spine1
    {
      OFFSET 0 23.15396 4.99043
      CHANNELS 3 Zrotation Xrotation Yrotation
      JOINT spine2
      {
        OFFSET 0 20.79997 -5.064912
        CHANNELS 3 Zrotation Xrotation Yrotation
        JOINT neck
        {
          OFFSET 0 14.38658 9.616178
          CHANNELS 3 Zrotation Xrotation Yrotation
          End Site
          {
            OFFSET 0 20 0
          }
        }
      }
      JOINT right_manubrium
      {
        OFFSET -5.722621 16.35077 3.967754
        CHANNELS 3 Zrotation Xrotation Yrotation
        JOINT right_clavicle
        {
          OFFSET -13.16364 1.694482 -4.693211
          CHANNELS 3 Zrotation Xrotation Yrotation
          JOINT right_humerus
          {
            OFFSET -28.5034 -0.3100689 -2.792744
            CHANNELS 3 Zrotation Xrotation Yrotation
            JOINT right_radius
            {
              OFFSET -25.15693 0.02248979 -1.271978
              CHANNELS 3 Zrotation Xrotation Yrotation
              End Site
              {
                OFFSET -15 0 0
              }
            }
          }
        }
      }
      JOINT left_manubrium
      {
        OFFSET 5.722621 16.35077 3.967754
        CHANNELS 3 Zrotation Xrotation Yrotation
        JOINT left_clavicle
        {
          OFFSET 13.16364 1.694482 -4.693211
          CHANNELS 3 Zrotation Xrotation Yrotation
          JOINT left_humerus
          {
            OFFSET 29.39168 -1.063119 -2.237045
            CHANNELS 3 Zrotation Xrotation Yrotation
            JOINT left_radius
            {
              OFFSET 24.59957 -0.9528479 0.9047498
              CHANNELS 3 Zrotation Xrotation Yrotation
              End Site
              {
                OFFSET 15 -0 -0
              }
            }
          }
        }
      }
    }
  }
}
MOTION
Frames: 11
Frame Time: 0.0416666666667
1676.575 114.5426 2391.894 7.239425 -0.09267653 70.2477 -0.458006 12.71498 6.482481 -0 48.1028 -0 5.55422 -3.881475 -3.706835 -3.891695 -16.68514 -6.669488 -0 23.1054 -0 -5.271489 -9.529131 17.46038 -2.552769 -1.280578 8.551605 -1.848251 10.84123 -3.71931 1.891855 20.78467 5.211549 2.393093 -16.52878 6.32449 3.074559 -20.70654 11.31797 82.16082 23.80961 -8.765708 -0 0 23.89748 -25.04411 11.22287 13.93994 3.558233 -15.28874 -3.33038 -91.6374 22.60952 24.87167 0 0 -10.85693 -2.941803 4.092765 17.6984
1683.438 115.4057 2392.939 8.072154 -0.1875749 71.21211 -0.7663494 9.64703 6.126716 -0 55.08922 -0 5.362925 -2.284265 -4.785191 -4.848718 -12.63914 -7.506782 -0 21.39384 -0 -4.872574 -10.76675 17.23481 -2.737562 -1.166791 7.757699 -1.941642 10.83598 -4.013701 1.943175 21.16238 5.186441 2.143112 -16.10912 6.563476 3.011123 -20.10856 11.05156 83.43348 23.41147 -9.700732 -0 0 22.78191 -24.6243 11.32776 13.50064 3.507899 -15.40515 -3.636879 -90.86479 23.00983 23.6298 0 0 -10.63923 -2.870141 4.578048 17.66453
1689.898 116.3207 2393.842 8.877475 -0.3447304 72.45086 -0.8317445 4.962978 5.512693 -0 59.46551 -0 4.907215 -1.546379 -6.000236 -5.496503 -8.012241 -8.106422 -0 19.28111 -0 -4.500751 -12.36221 16.93244 -2.822201 -0.7046426 6.707927 -1.856718 10.74532 -4.478264 1.969355 21.64735 5.206636 1.847163 -15.61387 6.860993 2.82608 -19.31538 10.75013 84.81706 23.13269 -10.90286 -0 0 21.24757 -23.97261 11.43121 12.96001 3.641192 -15.78825 -4.003413 -89.58718 23.44827 21.35407 0 0 -11.23247 -2.556553 5.059328 17.25509
1695.881 117.0048 2394.636 9.417322 -0.4664038 73.8568 -0.7655903 -1.032228 4.693098 -0 59.80602 -0 4.210048 -1.830332 -7.20216 -5.821931 -3.113165 -8.508385 -0 16.64252 -0 -4.146241 -14.24674 16.55203 -2.834402 -0.008089149 5.515306 -1.557618 10.51664 -5.096367 1.993191 22.1523 5.277317 1.554957 -15.15511 7.218653 2.481356 -18.36457 10.40333 86.16425 23.06171 -12.35244 -0 0 19.42145 -23.12139 11.47959 12.33559 3.996142 -16.42166 -4.359983 -87.86174 23.8545 18.10361 0 0 -12.71675 -1.972201 5.460449 16.39541
1701.451 117.1966 2395.396 9.496909 -0.4465668 75.29891 -0.7344912 -7.583436 3.778622 -0 55.59504 -0 3.354447 -2.919404 -8.23696 -5.892405 1.723318 -8.78553 -0 13.68579 -0 -3.835713 -16.24892 16.07391 -2.842957 0.6930777 4.364392 -1.073952 10.13897 -5.802749 2.044446 22.56492 5.372509 1.327017 -14.85366 7.600354 1.998468 -17.32925 10.02131 87.36186 23.2302 -14.02159 -0 0 17.46832 -22.14302 11.45134 11.63795 4.553835 -17.26032 -4.624681 -85.86795 24.14323 14.21682 0 0 -15.00281 -1.150634 5.755688 15.12336
1706.797 116.7607 2396.208 9.077751 -0.2462133 76.66067 -0.8280101 -13.70425 2.893997 -0 47.70345 -0 2.465812 -4.289698 -8.995774 -5.802589 6.198761 -8.964173 -0 11.04161 -0 -3.67076 -18.10305 15.46514 -2.905884 1.161483 3.434575 -0.496318 9.659974 -6.501485 2.139094 22.80046 5.44206 1.20834 -14.77683 7.92949 1.474587 -16.29573 9.643429 88.35806 23.5686 -15.84205 -0 0 15.52416 -21.14921 11.38067 10.88479 5.228447 -18.23544 -4.739988 -83.86429 24.25809 10.23288 0 0 -17.81043 -0.1985027 5.993759 13.6177
1712.157 115.7436 2397.142 8.327828 0.05678583 77.86273 -0.9583556 -18.57507 2.171802 -0 38.18321 -0 1.656509 -5.38249 -9.462994 -5.622461 10.11127 -9.005757 -0 9.623375 -0 -3.802683 -19.49958 14.72284 -3.005348 1.283991 2.807044 0.0677049 9.170401 -7.102664 2.271032 22.8487 5.435811 1.202148 -14.90146 8.125723 1.040875 -15.33308 9.323254 89.16117 23.91338 -17.68053 -0 0 13.65491 -20.25245 11.33922 10.10934 5.888605 -19.24581 -4.702827 -82.11205 24.20529 6.699045 0 0 -20.69883 0.7319152 6.264482 12.15066
1717.731 114.3479 2398.235 7.542429 0.306907 78.86105 -0.9029462 -21.82908 1.749384 -0 29.34506 -0 0.9725939 -5.89772 -9.719551 -5.382024 13.35419 -8.869015 -0 10.24828 -0 -4.327704 -20.17799 13.92475 -3.047009 1.120619 2.442037 0.5413238 8.760194 -7.549187 2.423834 22.77672 5.329044 1.268676 -15.13332 8.156264 0.7880114 -14.47646 9.099267 89.80851 24.09229 -19.35751 -0 0 11.87928 -19.50709 11.38013 9.348824 6.405287 -20.16 -4.562303 -80.80057 24.05505 3.978331 0 0 -23.18873 1.502763 6.627828 10.97401
1723.638 112.8507 2399.5 6.991326 0.375934 79.63472 -0.4776204 -23.51344 1.717005 -0 22.76884 -0 0.3890649 -5.892317 -9.882183 -5.09261 15.85532 -8.578792 -0 13.25583 -0 -5.196123 -20.02157 13.22847 -2.937667 0.8342849 2.245093 0.8928953 8.477933 -7.816475 2.588022 22.68946 5.128878 1.352229 -15.36058 8.053112 0.7226311 -13.73305 8.976884 90.3318 24.02238 -20.70536 -0 0 10.22347 -18.88688 11.49267 8.624281 6.697051 -20.84936 -4.38625 -80.00732 23.91434 2.176011 0 0 -24.92591 2.041531 7.076953 10.21708
1729.901 111.5198 2400.937 6.818658 0.2336304 80.1769 0.3284276 -23.84186 2.064179 -0 18.94983 -0 -0.1506074 -5.651089 -10.03065 -4.770118 17.53192 -8.227237 -0 18.40468 -0 -6.236098 -19.08792 12.80625 -2.656506 0.5794161 2.143474 1.121233 8.321589 -7.897754 2.765461 22.68376 4.85996 1.409832 -15.49765 7.883475 0.786176 -13.10004 8.935344 90.74063 23.73189 -21.61554 -0 0 8.746598 -18.32211 11.60826 7.937484 6.744015 -21.22761 -4.225533 -79.71258 23.88913 1.206419 0 0 -25.76165 2.343363 7.565647 9.873561
1736.46 110.5606 2402.534 7.041896 -0.06607467 80.49034 1.370303 -23.00027 2.689696 -0 17.59337 -0 -0.691347 -5.484783 -10.18279 -4.437916 18.29521 -7.921775 -0 25.06056 -0 -7.257823 -17.55708 12.77279 -2.256258 0.4422375 2.110575 1.2389 8.258252 -7.794306 2.960723 22.82113 4.547809 1.421249 -15.50291 7.70821 0.9049489 -12.58126 8.9485 91.02128 23.30972 -22.04128 -0 0 7.529011 -17.75674 11.64394 7.290408 6.571527 -21.26291 -4.100215 -79.85505 24.05357 0.9233251 0 0 -25.708 2.433512 8.051819 9.865369
